<svg width="224" height="233" viewBox="0 0 224 233" fill="none" xmlns="http://www.w3.org/2000/svg">
<path d="M102.746 231.492C98.526 230.782 92.676 229.422 89.746 228.462C77.496 224.442 62.416 215.322 54.546 207.172L50.676 203.162L53.266 199.772C58.106 193.432 106.056 147.032 114.546 140.482C137.196 123.002 160.116 112.482 181.426 109.782C211.136 106.032 226.356 120.102 222.846 148.082C220.206 169.102 211.086 186.822 194.776 202.572C181.956 214.952 172.136 221.042 155.536 226.892C139.166 232.672 119.756 234.362 102.746 231.492ZM131.236 212.512C135.526 210.472 137.796 207.252 138.506 202.212C140.396 188.672 115.356 182.712 106.086 194.502C102.776 198.712 103.116 205.012 106.886 209.302C108.516 211.162 111.326 213.182 113.136 213.792C117.496 215.272 126.806 214.612 131.236 212.512ZM173.676 191.472C179.996 189.592 182.916 186.222 182.916 180.792C182.916 175.402 181.466 173.142 176.586 170.932C165.596 165.942 151.916 171.352 151.916 180.702C151.916 184.892 156.056 189.592 161.416 191.492C166.546 193.302 167.506 193.302 173.676 191.472ZM191.416 151.892C193.616 151.292 196.656 149.642 198.166 148.212C200.476 146.032 200.916 144.792 200.916 140.482C200.916 134.852 198.986 132.102 193.596 130.062C189.666 128.572 181.486 128.732 177.556 130.372C169.746 133.632 167.296 142.742 172.846 147.922C177.726 152.482 184.176 153.862 191.416 151.892ZM10.416 220.832C9.31599 220.222 7.68599 218.812 6.78599 217.692C3.67599 213.812 5.916 210.692 26.296 190.472C43.966 172.942 47.916 168.542 47.916 166.412C47.916 166.022 37.866 155.532 25.586 143.102C6.41597 123.692 3.01597 119.792 1.58597 115.562C-0.364027 109.802 -0.474024 106.972 1.02598 101.492C1.95598 98.0916 9.08602 90.5615 48.696 51.1115C85.906 14.0615 96.296 4.26156 100.346 2.37156L105.416 0.0115406L155.096 0.00156137C208.896 -0.00843863 207.886 -0.108441 207.936 5.31156C207.966 8.53156 145.996 69.3016 144.206 67.8116C143.276 67.0416 142.916 63.2016 142.916 54.0916C142.916 36.0216 144.066 36.9916 122.556 36.9916C104.586 36.9916 102.916 37.3615 102.916 41.3615C102.916 42.4415 105.616 46.1315 108.916 49.5715C112.216 53.0115 114.916 56.2815 114.916 56.8515C114.916 57.4115 101.636 71.2916 85.396 87.6816C69.066 104.182 56.006 118.152 56.156 118.962C56.806 122.412 60.876 122.962 85.736 122.982C106.456 122.992 110.016 123.202 109.736 124.442C109.566 125.242 97.936 137.502 83.906 151.692C69.866 165.882 49.396 186.872 38.406 198.342C21.696 215.762 14.736 222.162 12.716 221.962C12.546 221.942 11.516 221.432 10.416 220.832ZM79.916 110.712C79.916 109.132 120.496 68.7116 123.776 67.0216C126.006 65.8716 126.976 66.6516 142.106 81.7816C156.116 95.8016 158.036 98.0916 157.746 100.582C157.356 103.962 150.766 109.382 145.136 110.942C139.326 112.562 79.916 112.342 79.916 110.712Z" fill="#296CF8"/>
</svg>
